<svg xmlns="http://www.w3.org/2000/svg" width="23.857" height="23.852" viewBox="0 0 23.857 23.852">
  <path id="insta" d="M11.856,37.636a6.115,6.115,0,1,0,6.115,6.115A6.106,6.106,0,0,0,11.856,37.636Zm0,10.091a3.976,3.976,0,1,1,3.976-3.976A3.983,3.983,0,0,1,11.856,47.726Zm7.792-10.341a1.426,1.426,0,1,1-1.426-1.426A1.423,1.423,0,0,1,19.648,37.385Zm4.05,1.448a7.059,7.059,0,0,0-1.927-5,7.105,7.105,0,0,0-5-1.927c-1.969-.112-7.872-.112-9.841,0a7.1,7.1,0,0,0-5,1.921,7.082,7.082,0,0,0-1.927,5C-.1,40.8-.1,46.7.009,48.669a7.059,7.059,0,0,0,1.927,5,7.114,7.114,0,0,0,5,1.927c1.969.112,7.872.112,9.841,0a7.059,7.059,0,0,0,5-1.927,7.105,7.105,0,0,0,1.927-5C23.81,46.7,23.81,40.8,23.7,38.833ZM21.154,50.781a4.025,4.025,0,0,1-2.267,2.267c-1.57.623-5.3.479-7.031.479s-5.466.138-7.031-.479a4.025,4.025,0,0,1-2.267-2.267c-.623-1.57-.479-5.3-.479-7.031s-.138-5.466.479-7.031a4.025,4.025,0,0,1,2.267-2.267c1.57-.623,5.3-.479,7.031-.479s5.466-.138,7.031.479a4.025,4.025,0,0,1,2.267,2.267c.623,1.57.479,5.3.479,7.031S21.777,49.217,21.154,50.781Z" transform="translate(0.075 -31.825)" fill="#fff"/>
</svg>
