<svg xmlns="http://www.w3.org/2000/svg" width="25.41" height="20.638" viewBox="0 0 25.41 20.638">
  <path id="twiter" d="M22.8,53.225c.016.226.016.451.016.677A14.716,14.716,0,0,1,8,68.72a14.717,14.717,0,0,1-8-2.338,10.774,10.774,0,0,0,1.258.064,10.43,10.43,0,0,0,6.465-2.225A5.217,5.217,0,0,1,2.854,60.61a6.569,6.569,0,0,0,.984.081,5.508,5.508,0,0,0,1.37-.177A5.209,5.209,0,0,1,1.032,55.4v-.064A5.245,5.245,0,0,0,3.386,56a5.216,5.216,0,0,1-1.612-6.965,14.8,14.8,0,0,0,10.738,5.45,5.879,5.879,0,0,1-.129-1.193A5.213,5.213,0,0,1,21.4,49.727,10.253,10.253,0,0,0,24.7,48.469a5.194,5.194,0,0,1-2.29,2.87,10.44,10.44,0,0,0,3-.806A11.2,11.2,0,0,1,22.8,53.225Z" transform="translate(0 -48.082)" fill="#fff"/>
</svg>
