<svg xmlns="http://www.w3.org/2000/svg" width="31.06" height="31.067" viewBox="0 0 31.06 31.067">
  <path id="globe-solid" d="M21.076,17.52C20.168,11.927,18.026,8,15.533,8S10.9,11.927,9.99,17.52ZM9.52,23.533a39.259,39.259,0,0,0,.207,4.009H21.333a39.258,39.258,0,0,0,.207-4.009,39.26,39.26,0,0,0-.207-4.009H9.727A39.259,39.259,0,0,0,9.52,23.533ZM29.858,17.52a15.566,15.566,0,0,0-9.9-8.869,21.14,21.14,0,0,1,3.132,8.869ZM11.1,8.651a15.556,15.556,0,0,0-9.89,8.869H7.973A21.054,21.054,0,0,1,11.1,8.651ZM30.528,19.525H23.344c.132,1.315.207,2.662.207,4.009s-.075,2.693-.207,4.009h7.178a15.4,15.4,0,0,0,.539-4.009,15.668,15.668,0,0,0-.532-4.009ZM7.516,23.533c0-1.347.075-2.693.207-4.009H.539a15.185,15.185,0,0,0,0,8.017H7.717C7.591,26.227,7.516,24.88,7.516,23.533ZM9.99,29.546c.908,5.593,3.05,9.52,5.543,9.52s4.635-3.927,5.543-9.52Zm9.978,8.869a15.581,15.581,0,0,0,9.9-8.869H23.1A21.14,21.14,0,0,1,19.968,38.415ZM1.209,29.546a15.566,15.566,0,0,0,9.9,8.869,21.14,21.14,0,0,1-3.132-8.869H1.209Z" transform="translate(0 -8)" fill="#05112e"/>
</svg>
