<svg xmlns="http://www.w3.org/2000/svg" xmlns:xlink="http://www.w3.org/1999/xlink" width="269" height="60.891" viewBox="0 0 269 60.891">
  <defs>
    <linearGradient id="linear-gradient" x1="0.2" y1="-0.196" x2="0.8" y2="1.196" gradientUnits="objectBoundingBox">
      <stop offset="0" stop-color="#27cde3"/>
      <stop offset="0.203" stop-color="#36b2dc"/>
      <stop offset="0.635" stop-color="#5e6fcb"/>
      <stop offset="1" stop-color="#8332bc"/>
    </linearGradient>
    <linearGradient id="linear-gradient-2" x1="0.227" y1="-0.884" x2="0.773" y2="1.884" gradientUnits="objectBoundingBox">
      <stop offset="0" stop-color="#8332bc"/>
      <stop offset="0.365" stop-color="#5e6fcb"/>
      <stop offset="0.797" stop-color="#36b2dc"/>
      <stop offset="1" stop-color="#27cde3"/>
    </linearGradient>
  </defs>
  <g id="Group_34" data-name="Group 34" transform="translate(-1223 -437)">
    <g id="Group_22" data-name="Group 22" transform="translate(718.667 281.34)">
      <g id="Group_1" data-name="Group 1" transform="translate(522.881 155.66)">
        <path id="Path_1" data-name="Path 1" d="M752.654,197.207h-85.32l11.129-41.547h85.32Z" transform="translate(-564.949 -155.66)" fill="url(#linear-gradient)"/>
        <path id="Path_2" data-name="Path 2" d="M728.909,206.207H529.333l11.129-41.547H740.037Z" transform="translate(-529.333 -157.983)" fill="url(#linear-gradient-2)"/>
      </g>
      <text id="ANNOUNCEMENTS" transform="translate(625.869 188.65)" fill="#fff" font-size="20" font-family="Ubuntu-Light, Ubuntu" font-weight="300" letter-spacing="0.025em"><tspan x="-88.8" y="0">ANNOUNCEMENTS</tspan></text>
      <path id="Path_3" data-name="Path 3" d="M681.264,227.982H514.333l4.451-16.322H685.716Z" transform="translate(-2.581 -14.453)" fill="#1a1a1a"/>
      <g id="Group_3" data-name="Group 3" transform="translate(504.333 170.127)">
        <line id="Line_2" data-name="Line 2" x1="41.547" transform="translate(192.898)" fill="none" stroke="#1a1a1a" stroke-miterlimit="10" stroke-width="1"/>
        <g id="Group_2" data-name="Group 2" transform="translate(0 14.838)">
          <line id="Line_3" data-name="Line 3" x1="31.902" transform="translate(0 2.968)" fill="none" stroke="#1a1a1a" stroke-miterlimit="10" stroke-width="1"/>
          <line id="Line_4" data-name="Line 4" x1="22.999" transform="translate(12.613)" fill="none" stroke="#1a1a1a" stroke-miterlimit="10" stroke-width="1"/>
        </g>
      </g>
    </g>
    <g id="Group_33" data-name="Group 33" transform="translate(866.893 360.012)">
      <g id="Megaphone" transform="translate(566.107 87.05)">
        <g id="Group_27" data-name="Group 27" transform="translate(0)">
          <g id="Group_23" data-name="Group 23" transform="translate(2.554 12.001)">
            <path id="Path_10" data-name="Path 10" d="M604.811,128.6l6.26-3.618s0,22.047,0,23.132a3.671,3.671,0,0,0,1.252,2.17l-6.261,3.614a3.671,3.671,0,0,1-1.252-2.169Z" transform="translate(-596.975 -124.98)" fill="#37474f"/>
            <path id="Path_11" data-name="Path 11" d="M579.616,136.521l2.639,3.361-.014,9.323-2.85,7.426,9.088,5.249a3.362,3.362,0,0,1-1.252-2.169v-18.8Z" transform="translate(-579.391 -132.963)" fill="#455a64"/>
            <path id="Path_12" data-name="Path 12" d="M579.391,201.759V203.2l9.088,5.249v-1.446Z" transform="translate(-579.391 -178.091)" fill="#132856"/>
            <path id="Path_13" data-name="Path 13" d="M608.873,212.121l6.261-3.614v-1.446l-6.261,3.614Z" transform="translate(-599.785 -181.759)" fill="#27debf"/>
            <path id="Path_14" data-name="Path 14" d="M608.873,212.121l6.261-3.614v-1.446l-6.261,3.614Z" transform="translate(-599.785 -181.759)" opacity="0.1"/>
          </g>
          <g id="Group_24" data-name="Group 24">
            <path id="Path_15" data-name="Path 15" d="M581.208,86.461h0c-1.063-.636-2.543-.558-4.181.387l-.06.035a12.953,12.953,0,0,0-5.861,10.151V97.1c0,1.936.705,3.273,1.834,3.855h0l4.74,2.79,7.908-14.707Z" transform="translate(-571.107 -86.05)" fill="#f0f0f0"/>
            <path id="Path_16" data-name="Path 16" d="M572.941,118.535h0l4.74,2.79,2.621-4.875-8.649-4.994a10.306,10.306,0,0,0-.545,3.153v.069C571.107,116.616,571.812,117.953,572.941,118.535Z" transform="translate(-571.107 -103.626)" fill="#e0e0e0"/>
            <path id="Path_17" data-name="Path 17" d="M597.408,91.666l0,0a4.868,4.868,0,0,0-4.618.216c-.188.089-.379.191-.573.3-.228.133-.45.271-.672.425a11.566,11.566,0,0,0-1.073.826,14.865,14.865,0,0,0-1.8,1.85,17.689,17.689,0,0,0-3.314,6.3,12.488,12.488,0,0,0-.487,3.329c0,2.284.783,3.909,2.056,4.7l-4.525-2.608L582.4,107a5.851,5.851,0,0,1-2.67-5.046,12.308,12.308,0,0,1,.447-3.178,17.62,17.62,0,0,1,3.354-6.452,14.665,14.665,0,0,1,1.8-1.85,11.084,11.084,0,0,1,1.073-.826c.222-.154.447-.3.672-.425.191-.111.385-.21.579-.3a5.8,5.8,0,0,1,5.126.086l0,0,.126.071c.052.031.108.062.16.1Z" transform="translate(-577.073 -87.656)" fill="#132856"/>
            <path id="Path_18" data-name="Path 18" d="M582.4,130.364l.006-.009a5.851,5.851,0,0,1-2.67-5.046,12.309,12.309,0,0,1,.447-3.178l5.173,2.814a12.488,12.488,0,0,0-.487,3.329c0,2.284.783,3.909,2.056,4.7Z" transform="translate(-577.073 -111.008)" opacity="0.1"/>
            <path id="Path_19" data-name="Path 19" d="M611.083,102.744a16.241,16.241,0,0,1-7.349,12.731c-2.041,1.181-3.89,1.285-5.222.5-.024-.012-.049-.028-.074-.043-1.273-.789-2.056-2.414-2.056-4.7A16.251,16.251,0,0,1,603.731,98.5c2.025-1.168,3.862-1.282,5.191-.518S611.083,100.395,611.083,102.744Z" transform="translate(-588.591 -93.967)" fill="#27debf"/>
            <path id="Path_20" data-name="Path 20" d="M611.083,102.744a16.241,16.241,0,0,1-7.349,12.731c-2.041,1.181-3.89,1.285-5.222.5-.024-.012-.049-.028-.074-.043-1.273-.789-2.056-2.414-2.056-4.7A16.251,16.251,0,0,1,603.731,98.5c2.025-1.168,3.862-1.282,5.191-.518S611.083,100.395,611.083,102.744Z" transform="translate(-588.591 -93.967)" opacity="0.2"/>
            <path id="Path_21" data-name="Path 21" d="M634.677,102.606s-7.415,3.806-13.748,14.775a49.951,49.951,0,0,0-3.005,6.117c-3.181,7.8-2.917,13.177-2.917,13.177-2.211-5.413-4.958-11.018-9.543-15.309a69.9,69.9,0,0,0-5.636-4.714l0-.005c-1.213-.7-1.921-2.234-1.922-4.341a12.733,12.733,0,0,1,.831-4.318A16.82,16.82,0,0,1,600,105.3a14.56,14.56,0,0,1,5.028-5.312c1.825-1.053,3.5-1.205,4.721-.507l0-.005a69.853,69.853,0,0,0,6.9,2.524C622.656,103.821,628.884,103.4,634.677,102.606Z" transform="translate(-589.647 -95.043)" fill="#f0f0f0"/>
            <path id="Path_22" data-name="Path 22" d="M617.923,143.556c-3.181,7.8-2.917,13.177-2.917,13.177-2.211-5.412-4.958-11.018-9.543-15.309a69.9,69.9,0,0,0-5.636-4.714l0-.005c-1.213-.7-1.921-2.234-1.922-4.341a12.732,12.732,0,0,1,.831-4.318C604.359,130.86,613.452,136.048,617.923,143.556Z" transform="translate(-589.647 -115.1)" fill="#e0e0e0"/>
            <path id="Path_23" data-name="Path 23" d="M684,116.888a34.524,34.524,0,0,1-4.01,15.182v0c-3.212,6.329-8.058,11.979-13.483,15.111-9.661,5.576-17.491,1.054-17.491-10.1a29.686,29.686,0,0,1,1.156-7.907,41.672,41.672,0,0,1,10.6-17.962q1.027-1.008,2.108-1.9c.3-.247.6-.487.909-.718h0q.652-.495,1.316-.94c.462-.308.928-.6,1.4-.872C676.164,101.213,684,105.732,684,116.888Z" transform="translate(-624.997 -98.744)" fill="#132856"/>
            <path id="Path_24" data-name="Path 24" d="M679.986,187.675c-3.212,6.329-8.058,11.979-13.483,15.111-9.661,5.576-17.491,1.054-17.491-10.1a29.686,29.686,0,0,1,1.156-7.907h0c.654,1.443,3,3.5,4.054,2.059a26.778,26.778,0,0,0-1.014,7.013c0,3.206.715,5.792,2.065,7.485a5.722,5.722,0,0,0,4.707,2.173,13.324,13.324,0,0,0,6.437-2.025c4.615-2.663,8.856-7.451,11.865-12.873C678.285,188.612,678.886,189.12,679.986,187.675Z" transform="translate(-624.997 -154.345)" opacity="0.1"/>
            <path id="Path_25" data-name="Path 25" d="M692.222,125.265c0,4.926-1.729,10.487-4.516,15.5-3.009,5.422-7.25,10.21-11.865,12.873a13.324,13.324,0,0,1-6.436,2.025,5.722,5.722,0,0,1-4.707-2.173c-1.35-1.692-2.065-4.279-2.065-7.485a26.781,26.781,0,0,1,1.014-7.013c.246-.906.536-1.816.866-2.722a38.928,38.928,0,0,1,2.062-4.683q.245-.472.5-.934c.281-.515.573-1.027.879-1.526a39.327,39.327,0,0,1,3.449-4.852c.012-.015.031-.034.043-.052a34.944,34.944,0,0,1,2.611-2.8q.976-.934,1.994-1.748c.284-.228.57-.447.86-.66q.523-.379,1.054-.731c.345-.225.694-.438,1.042-.641a13.346,13.346,0,0,1,6.443-2.031C689.691,115.61,692.222,119.223,692.222,125.265Z" transform="translate(-634.418 -106.498)" fill="#27debf"/>
            <path id="Path_26" data-name="Path 26" d="M692.222,125.265c0,4.926-1.729,10.487-4.516,15.5-3.009,5.422-7.25,10.21-11.865,12.873a13.324,13.324,0,0,1-6.436,2.025,5.722,5.722,0,0,1-4.707-2.173c-1.35-1.692-2.065-4.279-2.065-7.485a26.781,26.781,0,0,1,1.014-7.013c.246-.906.536-1.816.866-2.722a38.928,38.928,0,0,1,2.062-4.683q.245-.472.5-.934c.281-.515.573-1.027.879-1.526a39.327,39.327,0,0,1,3.449-4.852c.012-.015.031-.034.043-.052a34.944,34.944,0,0,1,2.611-2.8q.976-.934,1.994-1.748c.284-.228.57-.447.86-.66q.523-.379,1.054-.731c.345-.225.694-.438,1.042-.641a13.346,13.346,0,0,1,6.443-2.031C689.691,115.61,692.222,119.223,692.222,125.265Z" transform="translate(-634.418 -106.498)" opacity="0.3"/>
          </g>
          <g id="Group_25" data-name="Group 25" transform="translate(29.781 17.076)">
            <path id="Path_27" data-name="Path 27" d="M680.873,145.877l-6.138,11.458c-1.723-.647-4.642-1.683-7.019-2.29.1-.3.2-.6.315-.9a38.936,38.936,0,0,1,2.062-4.683q.245-.472.5-.934c.281-.515.573-1.027.879-1.526a39.318,39.318,0,0,1,3.449-4.852c.012-.015.031-.034.043-.052.185-.219.37-.438.558-.65A39.867,39.867,0,0,0,680.873,145.877Z" transform="translate(-667.716 -141.444)" fill="#e0e0e0"/>
          </g>
          <g id="Group_26" data-name="Group 26" transform="translate(35.098 21.227)">
            <path id="Path_28" data-name="Path 28" d="M687.178,166.621c-1.387,0-2.215-1.121-2.215-3v-.057a10.256,10.256,0,0,1,4.633-8.026l.05-.029a3.988,3.988,0,0,1,1.936-.6c1.387,0,2.215,1.121,2.215,3v.057a10.256,10.256,0,0,1-4.634,8.026l-.05.029a3.986,3.986,0,0,1-1.936.6Z" transform="translate(-684.963 -154.91)" fill="#f5f5f5"/>
          </g>
        </g>
      </g>
    </g>
  </g>
</svg>
